<?xml version="1.0" encoding="utf-8"?>
<!-- Generator: Adobe Illustrator 27.0.0, SVG Export Plug-In . SVG Version: 6.00 Build 0)  -->
<svg version="1.1" id="Layer_1" xmlns="http://www.w3.org/2000/svg" xmlns:xlink="http://www.w3.org/1999/xlink" x="0px" y="0px"
	 viewBox="0 0 315 315" style="enable-background:new 0 0 315 315;" xml:space="preserve">
<style type="text/css">
	.st0{fill:#EAEEF4;}
</style>
<path class="st0" d="M259.52,106.71l-51.24-51.24c-3.89-3.89-9.06-6.03-14.56-6.03h-72.46c-5.5,0-10.67,2.14-14.55,6.03
	l-51.24,51.24c-3.89,3.89-6.03,9.06-6.03,14.55v72.46c0,5.5,2.14,10.67,6.03,14.56l51.24,51.24c3.89,3.89,9.06,6.03,14.56,6.03
	h72.46c5.5,0,10.67-2.14,14.56-6.03l51.24-51.24c3.89-3.89,6.03-9.06,6.03-14.56v-72.46C265.55,115.77,263.41,110.6,259.52,106.71z
	 M214,110.88c0,1.2-0.98,2.18-2.18,2.18h-16.55c-1.2,0-2.18,0.98-2.18,2.18v35.5h11.51c1.2,0,2.18,0.98,2.18,2.18v9.15
	c0,1.2-0.98,2.18-2.18,2.18H193.1v35.5c0,1.2,0.98,2.18,2.18,2.18h16.55c1.2,0,2.18,0.98,2.18,2.18v12.53c0,1.2-0.98,2.18-2.18,2.18
	h-8.15c-1.93,0-3.78-0.77-5.15-2.13l-19-21.25c-2.36-2.36-3.69-5.57-3.69-8.91v-22.29h-36.68v22.29c0,3.34-1.33,6.54-3.69,8.91
	l-19,21.25c-1.37,1.37-3.22,2.13-5.15,2.13h-8.15c-1.2,0-2.18-0.98-2.18-2.18v-12.53c0-1.2,0.98-2.18,2.18-2.18h16.55
	c1.2,0,2.18-0.98,2.18-2.18v-35.5h-11.51c-1.2,0-2.18-0.98-2.18-2.18v-9.15c0-1.2,0.98-2.18,2.18-2.18h11.51v-35.5
	c0-1.2-0.98-2.18-2.18-2.18h-16.55c-1.2,0-2.18-0.98-2.18-2.18V98.35c0-1.2,0.98-2.18,2.18-2.18h8.15c1.93,0,3.78,0.77,5.15,2.13
	l19,21.25c2.36,2.36,3.69,5.57,3.69,8.91v22.28h36.68v-22.28c0-3.34,1.33-6.54,3.69-8.91l19-21.25c1.37-1.37,3.22-2.13,5.15-2.13
	h8.15c1.2,0,2.18,0.98,2.18,2.18V110.88z"/>
</svg>
